<svg xmlns="http://www.w3.org/2000/svg" viewBox="0 0 142 38.3"><defs><style>.cls-1{fill:#6a4b9d;}.cls-2{fill:#5fa0ff;}.cls-3{fill:#5a5a5a;}</style></defs><title>Asset 1</title><g id="Layer_2" data-name="Layer 2"><g id="Layer_1-2" data-name="Layer 1"><rect class="cls-1" x="11.1" y="11.7" width="6.2" height="11.3"/><rect class="cls-1" x="23.2" y="11.7" width="6.2" height="11.3"/><path class="cls-2" d="M34.3,8.9H29.9c0-1-.2-4.5-2.9-4.5H13.7c-2.7,0-2.9,3.4-2.9,4.5H6.3C6.3,4.5,8.6,0,13.7,0H26.9C32,0,34.3,4.4,34.3,8.9Z"/><path class="cls-1" d="M34.7,11.7c0,2-.2,5.7-.4,8.3A60.07,60.07,0,0,1,33,28.8c-1.5.7-6.7,1.5-12.8,1.5h0c-6.1,0-11.3-.7-12.8-1.5A56.28,56.28,0,0,1,6.1,20c-.2-2.6-.4-6.3-.4-8.3H0c0,2.1.2,5.5.4,8.2A63.6,63.6,0,0,0,2,30.8c.9,3,4.8,4,8.5,4.5a69.25,69.25,0,0,0,9.6.6h0a69.25,69.25,0,0,0,9.6-.6c3.7-.5,7.7-1.5,8.5-4.5a75.17,75.17,0,0,0,1.7-10.9c.2-2.8.4-6.1.4-8.2Z"/><path class="cls-3" d="M70.1,20V30.7a.68.68,0,0,1-.7.7H65.6a.68.68,0,0,1-.7-.7V20c0-2.2-.8-3.4-3.3-3.4a6.15,6.15,0,0,0-4.3,1.8V30.7a.68.68,0,0,1-.7.7H52.8a.68.68,0,0,1-.7-.7V5.1a.68.68,0,0,1,.7-.7h3.8a.68.68,0,0,1,.7.7V14a8.23,8.23,0,0,1,5.5-2.1C67.5,12,70.1,14.3,70.1,20Z"/><path class="cls-3" d="M104.7,22c0,6.8-3.7,10.1-8.7,10.1a8.11,8.11,0,0,1-5.2-1.9v7.4a.68.68,0,0,1-.7.7H86.3a.68.68,0,0,1-.7-.7V13.2a.68.68,0,0,1,.7-.7h3.8a.68.68,0,0,1,.7.7v.7a8.65,8.65,0,0,1,5.2-2C101.1,11.9,104.7,15.2,104.7,22Zm-5.4,0c0-3.5-1.5-5.4-4.3-5.4a6.88,6.88,0,0,0-4.1,1.5v7.8A7.25,7.25,0,0,0,95,27.5C97.9,27.4,99.3,25.5,99.3,22Z"/><path class="cls-3" d="M119.2,27.7a10.29,10.29,0,0,0,4.6-1.1.73.73,0,0,1,1,.4l.9,2.7a.74.74,0,0,1-.4.9,13.61,13.61,0,0,1-6.8,1.4c-6.7,0-10.2-4.1-10.2-10.1,0-6.6,4.1-10.1,9.2-10.1,5.3,0,8.7,3.2,8.7,9.5v1.3a.68.68,0,0,1-.7.7H113.8C114.2,25.8,115.5,27.7,119.2,27.7Zm-5.3-8.3h7.3c-.2-2.3-1.4-3.4-3.5-3.4C115.8,16,114.4,16.9,113.9,19.4Z"/><path class="cls-3" d="M142,12.7v3.2a.68.68,0,0,1-.7.7,9.85,9.85,0,0,0-1.7.2,9.12,9.12,0,0,0-3.7,1.8V30.7a.68.68,0,0,1-.7.7h-3.8a.68.68,0,0,1-.7-.7V13.1a.68.68,0,0,1,.7-.7h3.8a.68.68,0,0,1,.7.7v1.1a8.27,8.27,0,0,1,4.5-2.2h.8A.77.77,0,0,1,142,12.7Z"/><path class="cls-3" d="M75.8,12.4h3.8a.68.68,0,0,1,.7.7V30.7a.68.68,0,0,1-.7.7H75.8a.68.68,0,0,1-.7-.7V13.1A.75.75,0,0,1,75.8,12.4Z"/><path class="cls-3" d="M80.1,5.9a4.07,4.07,0,0,0-2.4-.8h0a4.07,4.07,0,0,0-2.4.8.52.52,0,0,0-.2.4V9a.76.76,0,0,0,.2.4,4.07,4.07,0,0,0,2.4.8h0a4.07,4.07,0,0,0,2.4-.8.52.52,0,0,0,.2-.4V6.3C80.3,6.1,80.2,5.9,80.1,5.9Z"/></g></g></svg>